<svg xmlns="http://www.w3.org/2000/svg" width="25.198" height="15.797" viewBox="0 0 25.198 15.797">
  <path id="behance" d="M10.149,82.478a3.32,3.32,0,0,0,2.117-3.237c0-3.088-2.3-3.841-4.956-3.841H0V90.9H7.516c2.817,0,5.464-1.352,5.464-4.5a3.736,3.736,0,0,0-2.83-3.924ZM3.408,78.047h3.2c1.229,0,2.336.346,2.336,1.772,0,1.317-.862,1.846-2.078,1.846H3.408V78.047ZM7.052,88.27H3.408V84H7.122c1.5,0,2.45.626,2.45,2.214C9.572,87.78,8.439,88.27,7.052,88.27ZM22.735,77.74H16.449V76.214h6.286ZM25.2,85.453c0-3.32-1.942-6.089-5.464-6.089A5.641,5.641,0,0,0,13.99,85.3c0,3.5,2.2,5.893,5.744,5.893a5,5,0,0,0,5.254-3.775H22.267a2.554,2.554,0,0,1-2.437,1.465,2.539,2.539,0,0,1-2.756-2.857h8.1C25.185,85.847,25.2,85.65,25.2,85.453Zm-8.119-1.365a2.409,2.409,0,0,1,2.559-2.4,2.3,2.3,0,0,1,2.459,2.4Z" transform="translate(0 -75.4)" fill="#0f1e33"/>
</svg>
