<svg xmlns="http://www.w3.org/2000/svg" width="2186.793" height="2159.438" viewBox="0 0 2186.793 2159.438">
  <g id="Grupo_45" data-name="Grupo 45" transform="matrix(0.788, -0.616, 0.616, 0.788, 382.999, 948.733)" opacity="0.347">
    <g id="Grupo_9" data-name="Grupo 9">
      <path id="Caminho_3" data-name="Caminho 3" d="M894.575-3.735,79.857-193.54-334.307,349.135,63.741,1084.9,878.459,1274.7l414.164-542.675Z" fill="none" stroke="#79c88b" stroke-miterlimit="10" stroke-width="0.5"/>
    </g>
    <g id="Grupo_10" data-name="Grupo 10">
      <path id="Caminho_4" data-name="Caminho 4" d="M877.3,46.364,127.056-149.319-269.882,343.409,81.019,1034.8,831.26,1230.483,1228.2,737.756Z" fill="none" stroke="#79c88b" stroke-miterlimit="10" stroke-width="0.5"/>
    </g>
    <g id="Grupo_11" data-name="Grupo 11">
      <path id="Caminho_5" data-name="Caminho 5" d="M860.071,92.362,169.711-107.2-210.052,339.67,98.246,988.8,788.6,1188.362l379.763-446.868Z" fill="none" stroke="#79c88b" stroke-miterlimit="10" stroke-width="0.5"/>
    </g>
    <g id="Grupo_12" data-name="Grupo 12">
      <path id="Caminho_6" data-name="Caminho 6" d="M842.99,134.562,208.208-67.134l-362.735,404.8L115.326,946.6l634.782,201.7,362.735-404.8Z" fill="none" stroke="#79c88b" stroke-miterlimit="10" stroke-width="0.5"/>
    </g>
    <g id="Grupo_13" data-name="Grupo 13">
      <path id="Caminho_7" data-name="Caminho 7" d="M826.138,173.245,242.9-29.076-103.032,337.153,132.178,907.92l583.236,202.321,345.933-366.229Z" fill="none" stroke="#79c88b" stroke-miterlimit="10" stroke-width="0.5"/>
    </g>
    <g id="Grupo_14" data-name="Grupo 14">
      <path id="Caminho_8" data-name="Caminho 8" d="M809.583,208.676,274.12,7.029l-329.428,330.9L148.734,872.489,684.2,1074.136l329.428-330.9Z" fill="none" stroke="#79c88b" stroke-miterlimit="10" stroke-width="0.5"/>
    </g>
    <g id="Grupo_15" data-name="Grupo 15">
      <path id="Caminho_9" data-name="Caminho 9" d="M793.382,241.1,302.167,41.241-11.109,339.818,164.935,840.063,656.15,1039.924,969.425,741.346Z" fill="none" stroke="#79c88b" stroke-miterlimit="10" stroke-width="0.5"/>
    </g>
    <g id="Grupo_16" data-name="Grupo 16">
      <path id="Caminho_10" data-name="Caminho 10" d="M777.582,270.75,327.32,73.622,29.8,342.64,180.734,810.415,631,1007.543,928.52,738.525Z" fill="none" stroke="#79c88b" stroke-miterlimit="10" stroke-width="0.5"/>
    </g>
    <g id="Grupo_17" data-name="Grupo 17">
      <path id="Caminho_11" data-name="Caminho 11" d="M762.222,297.836l-412.384-193.6L67.628,346.25,196.095,783.329l412.384,193.6,282.21-242.014Z" fill="none" stroke="#79c88b" stroke-miterlimit="10" stroke-width="0.5"/>
    </g>
    <g id="Grupo_18" data-name="Grupo 18">
      <path id="Caminho_12" data-name="Caminho 12" d="M747.331,322.558,369.955,133.148,102.592,350.515,210.985,758.607l377.375,189.41L855.724,730.65Z" fill="none" stroke="#79c88b" stroke-miterlimit="10" stroke-width="0.5"/>
    </g>
    <g id="Grupo_19" data-name="Grupo 19">
      <path id="Caminho_13" data-name="Caminho 13" d="M732.933,345.1,387.892,160.426,134.883,355.317l90.5,380.746L570.424,920.739,823.433,725.848Z" fill="none" stroke="#79c88b" stroke-miterlimit="10" stroke-width="0.5"/>
    </g>
    <g id="Grupo_20" data-name="Grupo 20">
      <path id="Caminho_14" data-name="Caminho 14" d="M719.044,365.638l-315.2-179.5L164.685,360.552l74.587,354.974,315.2,179.5L793.631,720.613Z" fill="none" stroke="#79c88b" stroke-miterlimit="10" stroke-width="0.5"/>
    </g>
    <g id="Grupo_21" data-name="Grupo 21">
      <path id="Caminho_15" data-name="Caminho 15" d="M705.676,384.329,418,210.345,192.17,366.127l60.47,330.709L540.312,870.82,766.146,715.037Z" fill="none" stroke="#79c88b" stroke-miterlimit="10" stroke-width="0.5"/>
    </g>
    <g id="Grupo_22" data-name="Grupo 22">
      <path id="Caminho_16" data-name="Caminho 16" d="M692.835,401.32l-262.3-168.2L217.5,371.962l47.981,307.883,262.3,168.2L740.816,709.2Z" fill="none" stroke="#79c88b" stroke-miterlimit="10" stroke-width="0.5"/>
    </g>
    <g id="Grupo_23" data-name="Grupo 23">
      <path id="Caminho_17" data-name="Caminho 17" d="M680.524,416.751,441.586,254.527,240.827,377.984l36.965,286.429L516.73,826.638,717.489,703.18Z" fill="none" stroke="#79c88b" stroke-miterlimit="10" stroke-width="0.5"/>
    </g>
    <g id="Grupo_24" data-name="Grupo 24">
      <path id="Caminho_18" data-name="Caminho 18" d="M668.743,430.748,451.307,274.629l-189.013,109.5,27.28,266.284L507.01,806.536l189.013-109.5Z" fill="none" stroke="#79c88b" stroke-miterlimit="10" stroke-width="0.5"/>
    </g>
    <g id="Grupo_25" data-name="Grupo 25">
      <path id="Caminho_19" data-name="Caminho 19" d="M657.486,443.431,459.824,293.492,282.034,390.35l18.8,247.384L498.492,787.673l177.79-96.858Z" fill="none" stroke="#79c88b" stroke-miterlimit="10" stroke-width="0.5"/>
    </g>
    <g id="Grupo_26" data-name="Grupo 26">
      <path id="Caminho_20" data-name="Caminho 20" d="M646.748,454.908,467.256,311.175,300.172,396.591l11.4,229.666L491.06,769.99l167.084-85.416Z" fill="none" stroke="#79c88b" stroke-miterlimit="10" stroke-width="0.5"/>
    </g>
    <g id="Grupo_27" data-name="Grupo 27">
      <path id="Caminho_21" data-name="Caminho 21" d="M636.519,465.28,473.712,327.74,316.826,402.816,321.8,615.885,484.6,753.424,641.49,678.349Z" fill="none" stroke="#79c88b" stroke-miterlimit="10" stroke-width="0.5"/>
    </g>
    <g id="Grupo_28" data-name="Grupo 28">
      <path id="Caminho_22" data-name="Caminho 22" d="M626.79,474.641l-147.5-131.4L332.1,408.988l-.579,197.536,147.5,131.4,147.186-65.742Z" fill="none" stroke="#79c88b" stroke-miterlimit="10" stroke-width="0.5"/>
    </g>
    <g id="Grupo_29" data-name="Grupo 29">
      <path id="Caminho_23" data-name="Caminho 23" d="M617.548,483.078,484.083,357.748,346.111,415.078l-5.342,183.008L474.233,723.417l137.972-57.331Z" fill="none" stroke="#79c88b" stroke-miterlimit="10" stroke-width="0.5"/>
    </g>
    <g id="Grupo_30" data-name="Grupo 30">
      <path id="Caminho_24" data-name="Caminho 24" d="M608.779,490.67,488.17,371.3,358.94,421.062l-9.4,169.432,120.609,119.37L599.377,660.1Z" fill="none" stroke="#79c88b" stroke-miterlimit="10" stroke-width="0.5"/>
    </g>
    <g id="Grupo_31" data-name="Grupo 31">
      <path id="Caminho_25" data-name="Caminho 25" d="M600.47,497.491,491.626,383.957,370.68,426.918,357.846,583.674,466.69,697.208l120.946-42.961Z" fill="none" stroke="#79c88b" stroke-miterlimit="10" stroke-width="0.5"/>
    </g>
    <g id="Grupo_32" data-name="Grupo 32">
      <path id="Caminho_26" data-name="Caminho 26" d="M592.606,503.609,494.521,395.768,381.416,432.63,365.711,577.556,463.795,685.4,576.9,648.535Z" fill="none" stroke="#79c88b" stroke-miterlimit="10" stroke-width="0.5"/>
    </g>
    <g id="Grupo_33" data-name="Grupo 33">
      <path id="Caminho_27" data-name="Caminho 27" d="M585.17,509.086l-88.254-102.3-105.692,31.4-18.078,133.9,88.254,102.3,105.692-31.4Z" fill="none" stroke="#79c88b" stroke-miterlimit="10" stroke-width="0.5"/>
    </g>
    <g id="Grupo_34" data-name="Grupo 34">
      <path id="Caminho_28" data-name="Caminho 28" d="M578.148,513.979l-79.281-96.935-98.691,26.523L380.169,567.186l79.281,96.935L558.14,637.6Z" fill="none" stroke="#79c88b" stroke-miterlimit="10" stroke-width="0.5"/>
    </g>
    <g id="Grupo_35" data-name="Grupo 35">
      <path id="Caminho_29" data-name="Caminho 29" d="M571.522,518.342l-71.1-91.742-92.085,22.173L386.794,562.823l71.1,91.742,92.085-22.173Z" fill="none" stroke="#79c88b" stroke-miterlimit="10" stroke-width="0.5"/>
    </g>
    <g id="Grupo_36" data-name="Grupo 36">
      <path id="Caminho_30" data-name="Caminho 30" d="M565.277,522.224l-63.642-86.732-85.859,18.3L393.039,558.941l63.642,86.732,85.859-18.3Z" fill="none" stroke="#79c88b" stroke-miterlimit="10" stroke-width="0.5"/>
    </g>
    <g id="Grupo_37" data-name="Grupo 37">
      <path id="Caminho_31" data-name="Caminho 31" d="M559.4,525.668,502.541,443.76l-80,14.87L398.92,555.5,455.775,637.4l80-14.87Z" fill="none" stroke="#79c88b" stroke-miterlimit="10" stroke-width="0.5"/>
    </g>
    <g id="Grupo_38" data-name="Grupo 38">
      <path id="Caminho_32" data-name="Caminho 32" d="M553.864,528.716l-50.685-77.273L428.7,463.273l-24.246,89.176,50.685,77.273,74.481-11.831Z" fill="none" stroke="#79c88b" stroke-miterlimit="10" stroke-width="0.5"/>
    </g>
    <g id="Grupo_39" data-name="Grupo 39">
      <path id="Caminho_33" data-name="Caminho 33" d="M548.664,531.405l-45.081-72.829-69.3,9.149-24.634,82.034,45.081,72.829,69.3-9.149Z" fill="none" stroke="#79c88b" stroke-miterlimit="10" stroke-width="0.5"/>
    </g>
    <g id="Grupo_40" data-name="Grupo 40">
      <path id="Caminho_34" data-name="Caminho 34" d="M543.781,533.771l-40-68.575-64.428,6.791-24.82,75.407,40,68.575,64.428-6.791Z" fill="none" stroke="#79c88b" stroke-miterlimit="10" stroke-width="0.5"/>
    </g>
    <g id="Grupo_41" data-name="Grupo 41">
      <path id="Caminho_35" data-name="Caminho 35" d="M539.2,535.844l-35.39-64.51-59.859,4.725-24.832,69.263,35.39,64.51,59.859-4.724Z" fill="none" stroke="#79c88b" stroke-miterlimit="10" stroke-width="0.5"/>
    </g>
    <g id="Grupo_42" data-name="Grupo 42">
      <path id="Caminho_36" data-name="Caminho 36" d="M534.9,537.653l-31.22-60.631-55.576,2.921-24.692,63.57,31.22,60.631,55.576-2.921Z" fill="none" stroke="#79c88b" stroke-miterlimit="10" stroke-width="0.5"/>
    </g>
    <g id="Grupo_43" data-name="Grupo 43">
      <path id="Caminho_37" data-name="Caminho 37" d="M530.878,539.224l-27.451-56.936-51.564,1.354-24.425,58.3,27.451,56.936,51.564-1.354Z" fill="none" stroke="#79c88b" stroke-miterlimit="10" stroke-width="0.5"/>
    </g>
    <g id="Grupo_44" data-name="Grupo 44">
      <path id="Caminho_38" data-name="Caminho 38" d="M527.111,540.582l-24.049-53.421H455.254L431.2,540.582,455.254,594h47.809Z" fill="none" stroke="#79c88b" stroke-miterlimit="10" stroke-width="0.5"/>
    </g>
  </g>
</svg>
