<svg xmlns="http://www.w3.org/2000/svg" width="24.08" height="18.06" viewBox="0 0 24.08 18.06">
  <path id="envelope" d="M21.822,64H2.257A2.257,2.257,0,0,0,0,66.257V79.8A2.257,2.257,0,0,0,2.257,82.06H21.822A2.257,2.257,0,0,0,24.08,79.8V66.257A2.257,2.257,0,0,0,21.822,64Zm0,2.257v1.919c-1.055.859-2.736,2.194-6.33,5.008-.792.623-2.361,2.12-3.453,2.1-1.091.018-2.661-1.48-3.453-2.1-3.593-2.814-5.275-4.149-6.33-5.008V66.257ZM2.257,79.8V71.073c1.078.858,2.606,2.063,4.935,3.887,1.028.809,2.828,2.6,4.847,2.585,2.009.011,3.786-1.75,4.847-2.584,2.329-1.824,3.858-3.029,4.936-3.887V79.8Z" transform="translate(0 -64)" fill="#0f1e33"/>
</svg>
