<svg xmlns="http://www.w3.org/2000/svg" width="19.656" height="19.652" viewBox="0 0 19.656 19.652">
  <path id="instagram" d="M9.755,36.612a5.038,5.038,0,1,0,5.038,5.038A5.03,5.03,0,0,0,9.755,36.612Zm0,8.314a3.276,3.276,0,1,1,3.276-3.276A3.282,3.282,0,0,1,9.755,44.926Zm6.42-8.52A1.175,1.175,0,1,1,15,35.231,1.172,1.172,0,0,1,16.175,36.406ZM19.512,37.6a5.816,5.816,0,0,0-1.587-4.118,5.854,5.854,0,0,0-4.118-1.587c-1.622-.092-6.486-.092-8.108,0a5.846,5.846,0,0,0-4.118,1.583A5.835,5.835,0,0,0-.006,37.595C-.1,39.217-.1,44.08-.006,45.7A5.816,5.816,0,0,0,1.581,49.82,5.861,5.861,0,0,0,5.7,51.408c1.622.092,6.486.092,8.108,0a5.816,5.816,0,0,0,4.118-1.587A5.854,5.854,0,0,0,19.512,45.7c.092-1.622.092-6.481,0-8.1Zm-2.1,9.844a3.316,3.316,0,0,1-1.868,1.868c-1.294.513-4.363.395-5.793.395s-4.5.114-5.793-.395a3.316,3.316,0,0,1-1.868-1.868C1.581,46.15,1.7,43.08,1.7,41.651s-.114-4.5.395-5.793A3.316,3.316,0,0,1,3.963,33.99c1.294-.513,4.363-.395,5.793-.395s4.5-.114,5.793.395a3.316,3.316,0,0,1,1.868,1.868c.513,1.294.395,4.363.395,5.793S17.929,46.154,17.416,47.444Z" transform="translate(0.075 -31.825)" fill="#0f1e33"/>
</svg>
