<svg xmlns="http://www.w3.org/2000/svg" xmlns:xlink="http://www.w3.org/1999/xlink" viewBox="0 0 195.35 169.25"><defs><style>.cls-1{isolation:isolate;}.cls-2{fill:#79c88b;}.cls-3,.cls-4{mix-blend-mode:difference;}.cls-3{fill:url(#Gradiente_sem_nome_39);}.cls-4{fill:url(#Gradiente_sem_nome_45);}</style><linearGradient id="Gradiente_sem_nome_39" x1="105.07" y1="119.6" x2="101.47" y2="117.53" gradientUnits="userSpaceOnUse"><stop offset="0" stop-opacity="0"/><stop offset="1" stop-color="#1a1a1a" stop-opacity="0.8"/></linearGradient><linearGradient id="Gradiente_sem_nome_45" x1="90.2" y1="99.35" x2="95.04" y2="102.15" gradientUnits="userSpaceOnUse"><stop offset="0" stop-opacity="0"/><stop offset="0.46" stop-color="#0f0f0f" stop-opacity="0.45"/><stop offset="1" stop-color="#1a1a1a" stop-opacity="0.8"/></linearGradient></defs><title>wellington-silva</title><g class="cls-1"><g id="Camada_2" data-name="Camada 2"><g id="Camada_1-2" data-name="Camada 1"><path class="cls-2" d="M195,48.2H182.05a.33.33,0,0,0-.3.17L125.8,145.26a.35.35,0,0,1-.6,0l-20.55-35.59a.34.34,0,0,1,0-.34L167.48.52a.35.35,0,0,0-.3-.52h-139a.35.35,0,0,0-.3.52L90.7,109.33a.34.34,0,0,1,0,.34L70.15,145.26a.35.35,0,0,1-.6,0L13.6,48.37a.34.34,0,0,0-.3-.17H.35a.34.34,0,0,0-.3.52l69.5,120.36a.35.35,0,0,0,.6,0l27.22-47.15a.35.35,0,0,1,.6,0l27.23,47.15a.35.35,0,0,0,.6,0L195.3,48.72A.35.35,0,0,0,195,48.2ZM146.81,12.5l-24.1,41.74a.35.35,0,0,1-.47.13,50.54,50.54,0,0,0-49.09.08.34.34,0,0,1-.46-.13L48.54,12.5a.35.35,0,0,1,.3-.52h97.67A.35.35,0,0,1,146.81,12.5ZM79,65.31a.36.36,0,0,1,.14-.48,38.52,38.52,0,0,1,37.06-.08.35.35,0,0,1,.13.48L98,97.07a.35.35,0,0,1-.6,0Z"/><polyline class="cls-3" points="97.67 121.41 104.55 109.5 107.78 115.09 100.9 127 97.67 121.41"/><polyline class="cls-4" points="87.57 103.91 94.45 92 97.67 97.59 90.8 109.5 87.57 103.91"/></g></g></g></svg>