<svg xmlns="http://www.w3.org/2000/svg" width="20.459" height="20.459" viewBox="0 0 20.459 20.459">
  <path id="whatsapp" d="M17.395,34.973A10.141,10.141,0,0,0,1.439,47.207L0,52.459l5.375-1.411a10.107,10.107,0,0,0,4.845,1.233h0a10.074,10.074,0,0,0,7.17-17.308Zm-7.17,15.6A8.412,8.412,0,0,1,5.932,49.4l-.306-.183-3.188.836.849-3.11-.2-.32a8.443,8.443,0,1,1,15.659-4.48A8.521,8.521,0,0,1,10.225,50.573Zm4.622-6.311c-.251-.128-1.5-.74-1.731-.822s-.4-.128-.571.128-.653.822-.8,1-.3.192-.548.064a6.9,6.9,0,0,1-3.448-3.014c-.26-.448.26-.416.744-1.384a.469.469,0,0,0-.023-.443C8.4,39.658,7.9,38.412,7.686,37.9s-.416-.425-.571-.434-.315-.009-.484-.009a.938.938,0,0,0-.676.315,2.847,2.847,0,0,0-.886,2.114A4.963,4.963,0,0,0,6.1,42.513,11.32,11.32,0,0,0,10.43,46.34a4.957,4.957,0,0,0,3.041.635,2.6,2.6,0,0,0,1.708-1.206,2.119,2.119,0,0,0,.146-1.206C15.267,44.449,15.1,44.385,14.846,44.262Z" transform="translate(0 -32)" fill="#0f1e33"/>
</svg>
